# xmcd
#
# Track frame offsets:
#	150
#	13179
#	24948
#	38252
#	48593
#	60928
#	77613
#	88464
#	101057
#	116694
#	135608
#	147242
#	162952
#	179217
#	194478
#	205017
#	216922
#	229682
#	244915
#	255808
#	268075
#	280255
#
# Disc length: 3966 seconds
#
# Revision: 0
# Processed by: cddbd v1.5.2PL0 Copyright (c) Steve Scherf et al.
# Submitted via: audiograbber 1.83.01
#
DISCID=390f7c16
DTITLE=Dagmar Frederic - Was halten sie vom Tango? CD 2
DYEAR=2011
DGENRE=DDR
TTITLE0=Dagmar Frederic - Was halten Sie vom Tango
TTITLE1=Dagmar Frederic - Ich liebe Charlston
TTITLE2=Dagmar Frederic and Siegfried Uhlenbrock - Tanz in der Sommernacht
TTITLE3=Dagmar Frederic and Siegfried Uhlenbrock - Unsere Sommerreise
TTITLE4=Dagmar Frederic and Siegfried Uhlenbrock - Sommerabend
TTITLE5=Dagmar Frederic - Lass die Rosen nicht verblühn
TTITLE6=Dagmar Frederic - Sag, dass du mir bleibst
TTITLE7=Dagmar Frederic - Berliner Männer
TTITLE8=Dagmar Frederic - Ein Leben mehr
TTITLE9=Dagmar Frederic - Die Frau, die dich liebt
TTITLE10=Dagmar Frederic and Siegfried Uhlenbrock - In silberner Ferne
TTITLE11=Dagmar Frederic - April in Paris
TTITLE12=Dagmar Frederic - Heut ist ein Feiertag für mich
TTITLE13=Dagmar Frederic - All Of You
TTITLE14=Dagmar Frederic and Siegfried Uhlenbrock - Ich halt zu dir
TTITLE15=Dagmar Frederic and Siegfried Uhlenbrock - Das leise Lied
TTITLE16=Dagmar Frederic and Siegfried Uhlenbrock - Komm in den Morgen
TTITLE17=Dagmar Frederic and Siegfried Uhlenbrock - Im goldenen Herbst
TTITLE18=Dagmar Frederic and Siegfried Uhlenbrock - Ballade von der schönen Wirti
TTITLE18=n und dem Wanderer
TTITLE19=Dagmar Frederic and Siegfried Uhlenbrock - Der Winter ist da
TTITLE20=Dagmar Frederic and Siegfried Uhlenbrock - Träumerei am Samowar
TTITLE21=Dagmar Frederic - Ein Jahr in meinem Leben
EXTD=
EXTT0=
EXTT1=
EXTT2=
EXTT3=
EXTT4=
EXTT5=
EXTT6=
EXTT7=
EXTT8=
EXTT9=
EXTT10=
EXTT11=
EXTT12=
EXTT13=
EXTT14=
EXTT15=
EXTT16=
EXTT17=
EXTT18=
EXTT19=
EXTT20=
EXTT21=
PLAYORDER=
